HIERARCHY
ROOT Hips
{
	OFFSET -0.179506 -22.333345 2.821913
	CHANNELS 6 Xposition Yposition Zposition Zrotation Yrotation Xrotation 
	JOINT LeftUpLeg
	{
		OFFSET 6.951974 -9.140623 -0.681533
		CHANNELS 3 Zrotation Yrotation Xrotation
		JOINT LeftLeg
		{
			OFFSET 3.427654 -37.519855 -0.449580
			CHANNELS 3 Zrotation Yrotation Xrotation
			JOINT LeftFoot
			{
				OFFSET -1.359570 -39.796059 -4.369333
				CHANNELS 3 Zrotation Yrotation Xrotation
				JOINT LeftToe
				{
					OFFSET 2.635814 -5.579078 11.928840
					CHANNELS 3 Zrotation Yrotation Xrotation
					End Site
					{
						OFFSET 0.000000 0.000000 0.000000
					}
				}
			}
		}
	}
	JOINT RightUpLeg
	{
		OFFSET -6.767048 -9.052170 -0.431982
		CHANNELS 3 Zrotation Yrotation Xrotation
		JOINT RightLeg
		{
			OFFSET -3.829005 -38.256897 -0.885003
			CHANNELS 3 Zrotation Yrotation Xrotation
			JOINT RightFoot
			{
				OFFSET 1.577377 -39.841461 -4.231180
				CHANNELS 3 Zrotation Yrotation Xrotation
				JOINT RightToe
				{
					OFFSET -2.537174 -4.814398 12.334795
					CHANNELS 3 Zrotation Yrotation Xrotation
					End Site
					{
						OFFSET 0.000000 0.000000 0.000000
					}
				}
			}
		}
	}
	JOINT Spine
	{
		OFFSET -0.253288 10.896323 -2.669631
		CHANNELS 3 Zrotation Yrotation Xrotation
		JOINT Spine1
		{
			OFFSET 0.548704 13.518043 0.109247
			CHANNELS 3 Zrotation Yrotation Xrotation
			JOINT Spine2
			{
				OFFSET 0.145701 5.292222 2.542457
				CHANNELS 3 Zrotation Yrotation Xrotation
				JOINT Neck
				{
					OFFSET -0.277840 21.387037 -4.285703
					CHANNELS 3 Zrotation Yrotation Xrotation
					JOINT Head
					{
						OFFSET 0.515184 6.496960 5.134897
						CHANNELS 3 Zrotation Yrotation Xrotation
						End Site
						{
							OFFSET 0.000000 0.000000 0.000000
						}
					}
				}
				JOINT LeftShoulder
				{
					OFFSET 7.884473 12.174932 -3.408961
					CHANNELS 3 Zrotation Yrotation Xrotation
					JOINT LeftArm
					{
						OFFSET 9.097692 3.046888 -0.886815
						CHANNELS 3 Zrotation Yrotation Xrotation
						JOINT LeftForeArm
						{
							OFFSET 25.961220 -1.277207 -2.745643
							CHANNELS 3 Zrotation Yrotation Xrotation
							JOINT LeftHand
							{
								OFFSET 24.923361 0.898606 -0.117091
								CHANNELS 3 Zrotation Yrotation Xrotation
								End Site
								{
									OFFSET 0.000000 0.000000 0.000000
								}
							}
						}
					}
				}
				JOINT RightShoulder
				{
					OFFSET -8.175920 11.883285 -3.861528
					CHANNELS 3 Zrotation Yrotation Xrotation
					JOINT RightArm
					{
						OFFSET -9.601238 3.255117 -0.914307
						CHANNELS 3 Zrotation Yrotation Xrotation
						JOINT RightForeArm
						{
							OFFSET -25.374195 -1.332924 -2.140099
							CHANNELS 3 Zrotation Yrotation Xrotation
							JOINT RightHand
							{
								OFFSET -25.529810 0.777228 -0.555919
								CHANNELS 3 Zrotation Yrotation Xrotation
								End Site
								{
									OFFSET 0.000000 0.000000 0.000000
								}
							}
						}
					}
				}
			}
		}
	}
}
MOTION
Frames: 12
Frame Time: 0.033333
8.005862 13.735442 87.255898 -176.423457 -2.671404 92.236331 1.678596 -6.220418 -25.334000 -6.984950 4.469658 27.489819 10.283781 15.040452 -15.346423 nan nan nan -4.562114 1.226188 13.687740 7.602674 13.071511 25.511126 7.569557 3.434292 -7.685179 nan nan nan -3.672590 10.663916 1.147221 -0.163752 -2.320291 12.444614 -2.310940 3.314460 -5.717133 5.897314 -6.344643 -4.630971 1.968632 -4.173653 4.898874 -27.164264 5.058654 -0.448546 -56.442424 9.574179 18.280206 10.374461 -17.704208 7.247201 -16.718582 -9.914033 5.611426 24.593915 4.790611 -1.770304 57.102347 0.331980 17.077811 -11.878439 38.706121 -3.816141 8.321388 8.574330 -0.668652 
7.743524 14.637809 87.272888 -176.508830 -2.700981 92.225621 1.405097 -6.216591 -24.849668 -6.965296 4.413987 27.870621 10.518661 15.337687 -15.948419 nan nan nan -4.764747 1.366339 12.792751 7.873470 12.062625 27.813580 8.164185 3.792351 -5.751788 nan nan nan -3.872787 10.348511 1.077132 -0.056075 -2.197580 12.302758 -2.330763 3.298692 -5.607768 5.900352 -6.320243 -4.509374 2.052510 -4.048041 4.728488 -27.167531 5.160992 -0.454831 -56.613497 9.358999 18.207951 10.571299 -17.820617 6.881828 -16.705402 -9.431383 6.033905 24.680602 4.645170 -1.493548 57.116030 0.282964 17.045251 -11.593782 37.912447 -3.515404 8.571265 8.434378 -0.717387 
7.491856 15.544074 87.288467 -176.692926 -2.688722 92.270605 1.181352 -6.135125 -24.332720 -6.893650 4.455514 28.101766 10.838788 15.438040 -16.557146 nan nan nan -4.931486 1.375736 11.651691 7.995204 11.102120 30.339527 8.831514 4.272823 -3.422938 nan nan nan -3.998488 10.036264 1.022004 0.066119 -2.017262 12.099987 -2.436114 3.341568 -5.541227 5.919359 -6.240445 -4.399929 2.073017 -4.108315 4.568459 -27.066594 5.149580 -0.479563 -56.792766 9.212940 18.232907 10.585169 -17.798274 6.587139 -16.445104 -9.283527 6.153823 24.692226 4.520779 -1.306774 57.240050 0.081616 16.950739 -11.223200 37.077010 -3.149231 8.515731 8.267893 -0.626391 
7.245067 16.442293 87.305840 -176.826381 -2.651381 92.301445 1.021766 -6.094883 -23.793003 -6.944719 4.418544 28.253132 11.179807 15.612932 -17.109332 nan nan nan -5.059685 1.389251 10.413884 8.184185 10.204713 32.981508 9.459681 4.377826 -0.949295 nan nan nan -4.073109 9.697793 1.050553 0.173749 -1.891189 11.867743 -2.581581 3.422820 -5.538663 6.013105 -6.186835 -4.348377 1.971109 -4.087190 4.591145 -26.997082 4.950305 -0.419847 -56.947131 9.211036 18.207502 10.715358 -17.857480 6.202559 -16.101674 -9.407201 5.764841 24.673882 4.458099 -1.401077 57.423849 -0.382315 16.830142 -10.775492 36.206265 -2.699189 8.258866 7.973846 -0.513748 
6.995316 17.305315 87.349060 -176.834033 -2.537616 92.271635 0.930863 -6.151516 -23.225669 -7.009066 4.268712 28.377727 11.474752 15.872674 -17.548929 nan nan nan -4.968780 1.556603 9.094560 8.362399 9.344291 35.764479 9.646590 4.224883 0.945530 nan nan nan -3.984755 9.281054 1.288033 0.275826 -1.816708 11.656359 -2.746237 3.446360 -5.686127 6.085336 -6.127536 -4.255658 1.848051 -3.975678 4.605693 -27.062208 4.876467 -0.426248 -56.978507 9.154135 18.196208 10.855560 -17.954061 5.865836 -15.767934 -9.644156 5.246952 24.812893 4.357598 -1.480964 57.457485 -0.818658 16.849024 -10.522069 35.383035 -2.218735 8.005879 7.941195 -0.250382 
6.740365 18.161253 87.406601 -176.849658 -2.479089 92.134288 0.767459 -6.199893 -22.495513 -7.057305 4.169900 28.407849 11.797962 16.165548 -17.946916 nan nan nan -4.951236 1.697542 7.743833 8.469781 8.536779 38.671621 9.428183 4.120983 2.788359 nan nan nan -3.856088 8.870143 1.768995 0.342553 -1.706473 11.339167 -2.946422 3.408915 -5.767285 6.153804 -6.017752 -4.188102 1.775797 -3.905807 4.424212 -27.089644 4.900534 -0.470665 -56.881045 8.937067 18.267820 10.742784 -18.085124 5.752048 -15.505156 -9.892928 4.704301 24.974355 4.195982 -1.485354 57.505629 -1.105811 16.846224 -10.285829 34.585871 -1.741892 7.948265 7.820955 0.188170 
6.477021 19.001827 87.445244 -176.767546 -2.497065 92.002434 0.541918 -6.284298 -21.785823 -7.183160 4.029090 28.410866 12.164489 16.420454 -18.312802 nan nan nan -5.084665 1.742038 6.275869 8.557483 7.561176 41.669870 9.374239 3.880255 5.151351 nan nan nan -3.807265 8.371648 2.332875 0.378992 -1.626705 10.737756 -3.113968 3.412281 -5.568817 6.257606 -5.894046 -4.258321 1.680511 -3.838802 4.263232 -27.044147 4.782469 -0.436549 -56.922192 8.699623 18.182685 10.727422 -18.354096 5.399919 -15.257701 -9.879168 4.445146 25.041219 4.038758 -1.503473 57.626780 -1.394821 16.615825 -9.899522 33.935914 -1.194927 8.251851 7.258201 0.470664 
6.245747 19.824100 87.488380 -176.597007 -2.522170 91.805458 0.300943 -6.271087 -21.031621 -7.311678 3.809291 28.417473 12.498456 16.515468 -18.689688 nan nan nan -5.189836 1.697422 4.805560 8.490718 6.493203 44.658134 9.489555 3.420781 7.324734 nan nan nan -3.805766 7.848748 3.083403 0.447789 -1.556146 9.968401 -3.184714 3.327939 -5.235376 6.311124 -5.657336 -4.479708 1.461648 -3.798819 4.199766 -27.035206 4.481915 -0.352514 -57.030006 8.517068 17.978571 10.861979 -18.700688 4.906713 -15.125986 -9.871472 4.480008 25.068841 4.033248 -1.575727 57.716768 -1.790387 16.356943 -9.601394 33.435622 -0.672094 8.659695 6.641802 0.506586 
6.040269 20.649553 87.544998 -176.450492 -2.616438 91.600679 -0.008534 -6.201009 -20.183454 -7.473438 3.444067 28.273489 12.694989 16.694386 -19.005319 nan nan nan -5.338323 1.670321 3.314219 8.323448 5.441118 47.584079 9.291397 2.647637 8.782309 nan nan nan -3.910816 7.378288 3.630906 0.508351 -1.509253 9.633092 -3.224923 3.223132 -5.071166 6.229200 -5.502830 -4.746909 1.350715 -3.777944 4.180437 -27.013476 3.998035 -0.143637 -57.087373 8.248774 17.709127 10.938873 -19.014383 4.415805 -14.999028 -9.941127 4.404596 25.110897 4.070652 -1.748138 57.787108 -2.206620 15.993858 -9.282721 32.957643 -0.151707 9.047283 6.026534 0.954618 
5.809226 21.491880 87.606567 -176.233116 -2.750789 91.358871 -0.404771 -6.210335 -19.277475 -7.623600 2.979351 28.112166 12.861116 17.010416 -19.315195 nan nan nan -5.592431 1.561695 1.945597 7.968673 4.293738 50.249503 9.212792 1.517648 9.637779 nan nan nan -3.985119 6.891256 4.051913 0.496609 -1.613002 9.489757 -3.335321 3.149204 -4.944949 6.178765 -5.536566 -4.987738 1.249747 -3.718670 4.193406 -26.948039 3.592401 0.092556 -57.105517 7.922501 17.382272 10.917139 -19.487536 3.978910 -14.772451 -9.818068 4.388917 25.337584 4.116827 -1.906781 57.761103 -2.554860 15.653289 -9.040461 32.440491 0.207565 9.273893 5.451607 1.731048 
5.578369 22.357376 87.663269 -176.021035 -2.876969 90.979216 -0.852702 -6.101327 -18.121228 -7.653127 2.588485 27.845008 12.966301 17.168577 -19.715778 nan nan nan -5.841779 1.443182 0.751280 7.441080 3.143249 52.671140 9.227885 0.103907 9.499371 nan nan nan -4.047140 6.348612 4.694605 0.449671 -1.702766 9.060111 -3.376985 3.031658 -4.545931 6.188707 -5.361824 -5.338226 1.141244 -3.576310 4.261305 -26.879736 3.378509 0.085755 -57.132032 7.578228 17.230453 10.889818 -19.926373 3.584407 -14.301970 -9.868635 4.149115 25.566899 4.283533 -1.964394 57.777751 -2.796320 15.667740 -9.083233 31.817926 0.224358 9.219816 5.215962 1.909128 
5.372707 23.270138 87.719467 -175.888242 -2.961538 90.545540 -1.284724 -5.864822 -16.736936 -7.664301 2.062111 27.288154 12.971617 17.400010 -20.062345 nan nan nan -6.061714 1.268434 -0.401550 6.976622 2.081835 54.945425 8.604088 -1.374084 8.192284 nan nan nan -4.147012 5.923189 5.348525 0.453277 -1.652882 8.606048 -3.255903 2.814033 -4.051050 6.037902 -5.163556 -5.603061 1.093886 -3.276840 4.216405 -26.928025 3.127893 0.107691 -57.116394 7.135868 17.074679 10.814626 -20.332430 3.203243 -13.661073 -9.808159 4.059674 25.682264 4.417605 -1.943815 57.781175 -2.990343 15.651366 -9.190387 31.238855 0.190482 9.315843 5.031562 1.695430 
